<svg width="82" height="26" viewBox="0 0 82 26" fill="none" xmlns="http://www.w3.org/2000/svg">
<g clip-path="url(#clip0_60_406)">
<path d="M22.7 6.9L22.3 9H20.8L21.3 7C21.4 6.4 21.4 5.9 20.7 5.9C20 5.9 19.7 6.4 19.6 7L19.2 8.7C19.1 9.2 19.1 9.7 19.2 10.2L20.6 14.3C20.8 14.9 20.9 15.6 20.7 16.3L20.1 18.9C19.7 20.4 18.6 21.3 17.2 21.3C15.6 21.3 14.9 20.6 15.3 18.9L15.8 16.7H17.3L16.8 18.8C16.6 19.6 16.8 20 17.5 20C18.1 20 18.5 19.5 18.7 18.8L19.2 16.5C19.3 16 19.3 15.4 19.1 14.9L17.8 11.1C17.6 10.4 17.5 9.9 17.6 9L18 7C18.4 5.4 19.4 4.6 20.9 4.6C22.6 4.6 23.1 5.4 22.7 6.9ZM11.2 21.1L14.6 6H13L13.3 4.7H18.1L17.8 6H16.1L12.7 21.1H11.2ZM6.7 21.1L8.1 6.6L4.8 21.1H3.5L7.2 4.8H9.4L8 18.7L11.2 4.7H12.5L8.8 21.1H6.7ZM0 25C0 25.5523 0.447715 26 1 26H26V0H1C0.447716 0 0 0.447715 0 1V25Z" fill="white"/>
</g>
<path d="M81 0.5C81.2761 0.5 81.5 0.723857 81.5 1V25C81.5 25.2761 81.2761 25.5 81 25.5H26.5V0.5H81Z" stroke="white"/>
<mask id="path-3-outside-1_60_406" maskUnits="userSpaceOnUse" x="30" y="8" width="48" height="10" fill="black">
<rect fill="white" x="30" y="8" width="48" height="10"/>
<path d="M31 16.8464L33.8376 9H34.9273L37.7756 16.8464H36.7183L35.8983 14.454H32.8234L31.9926 16.8464H31ZM34.021 11.0192L33.1039 13.6529H35.6286L34.7439 11.0192C34.5928 10.5802 34.3986 9.91084 34.3986 9.91084H34.377C34.377 9.91084 34.172 10.5693 34.021 11.0192ZM37.6359 11.8971V11.1728H38.4451V9.38409H39.319V11.1728H40.3979V11.8971H39.319V15.5844C39.319 15.9794 39.524 16.1111 39.88 16.1111C40.0527 16.1111 40.2469 16.0672 40.344 16.0343H40.3763V16.8025C40.1713 16.8464 39.934 16.8793 39.675 16.8793C38.9629 16.8793 38.4451 16.583 38.4451 15.7819V11.8971H37.6359ZM43.4163 17C41.7547 17 40.719 15.6612 40.719 14.0151C40.719 12.369 41.7547 11.0302 43.4163 11.0302C45.0886 11.0302 46.1028 12.369 46.1028 14.0151C46.1028 15.6612 45.0886 17 43.4163 17ZM43.4163 16.2538C44.6031 16.2538 45.2073 15.2661 45.2073 14.0151C45.2073 12.7641 44.6031 11.7654 43.4163 11.7654C42.2295 11.7654 41.6145 12.7641 41.6145 14.0151C41.6145 15.2661 42.2295 16.2538 43.4163 16.2538ZM47.6325 11.1728V11.9191H47.654C48.0532 11.3813 48.6143 11.0412 49.4235 11.0412C50.5887 11.0412 51.3008 11.6886 51.3008 12.8628V16.8464H50.4269V12.9396C50.4269 12.2044 49.9521 11.7874 49.1645 11.7874C48.2798 11.7874 47.6325 12.4239 47.6325 13.3567V16.8464H46.7585V11.1728H47.6325ZM54.6273 17C52.9227 17 51.93 15.6612 51.93 14.0151C51.93 12.369 52.9874 11.0302 54.5734 11.0302C56.2457 11.0302 57.1412 12.3471 57.1412 14.2236H52.8256C52.8903 15.3759 53.5053 16.2538 54.6273 16.2538C55.4365 16.2538 55.976 15.8587 56.1702 15.0905H57.0226C56.7636 16.3086 55.8897 17 54.6273 17ZM54.5734 11.7325C53.5376 11.7325 52.9766 12.5226 52.8471 13.5542H56.2026C56.1486 12.4239 55.5768 11.7325 54.5734 11.7325ZM57.78 16.8464V11.1728H58.6538V11.9849H58.6754C59.0206 11.4362 59.614 11.0412 60.3153 11.0412C60.995 11.0412 61.5345 11.3923 61.7719 12.0508H61.7934C62.1495 11.4033 62.8184 11.0412 63.4981 11.0412C64.4907 11.0412 65.192 11.6886 65.192 12.8628V16.8464H64.3181V12.9067C64.3181 12.2044 63.8542 11.7874 63.2931 11.7874C62.5703 11.7874 61.9229 12.4239 61.9229 13.3128V16.8464H61.049V12.9067C61.049 12.2044 60.6606 11.7874 60.0887 11.7874C59.409 11.7874 58.6538 12.4239 58.6538 13.3128V16.8464H57.78ZM68.5146 17C66.853 17 65.8173 15.6612 65.8173 14.0151C65.8173 12.369 66.853 11.0302 68.5146 11.0302C70.1869 11.0302 71.2011 12.369 71.2011 14.0151C71.2011 15.6612 70.1869 17 68.5146 17ZM68.5146 16.2538C69.7014 16.2538 70.3056 15.2661 70.3056 14.0151C70.3056 12.7641 69.7014 11.7654 68.5146 11.7654C67.3278 11.7654 66.7128 12.7641 66.7128 14.0151C66.7128 15.2661 67.3278 16.2538 68.5146 16.2538ZM73.9035 12.1385V9H74.7666L75.4356 11.3923H75.4464L76.1261 9H77V12.1385H76.439V9.73525H76.4174C76.4174 9.73525 76.2879 10.2291 76.1692 10.6241L75.7269 12.1385H75.155L74.7127 10.6241C74.6048 10.262 74.4753 9.73525 74.4753 9.73525H74.4537V12.1385H73.9035ZM70.8502 9.51578V9H73.3964V9.51578H72.4254V12.1385H71.8212V9.51578H70.8502Z"/>
</mask>
<path d="M31 16.8464L33.8376 9H34.9273L37.7756 16.8464H36.7183L35.8983 14.454H32.8234L31.9926 16.8464H31ZM34.021 11.0192L33.1039 13.6529H35.6286L34.7439 11.0192C34.5928 10.5802 34.3986 9.91084 34.3986 9.91084H34.377C34.377 9.91084 34.172 10.5693 34.021 11.0192ZM37.6359 11.8971V11.1728H38.4451V9.38409H39.319V11.1728H40.3979V11.8971H39.319V15.5844C39.319 15.9794 39.524 16.1111 39.88 16.1111C40.0527 16.1111 40.2469 16.0672 40.344 16.0343H40.3763V16.8025C40.1713 16.8464 39.934 16.8793 39.675 16.8793C38.9629 16.8793 38.4451 16.583 38.4451 15.7819V11.8971H37.6359ZM43.4163 17C41.7547 17 40.719 15.6612 40.719 14.0151C40.719 12.369 41.7547 11.0302 43.4163 11.0302C45.0886 11.0302 46.1028 12.369 46.1028 14.0151C46.1028 15.6612 45.0886 17 43.4163 17ZM43.4163 16.2538C44.6031 16.2538 45.2073 15.2661 45.2073 14.0151C45.2073 12.7641 44.6031 11.7654 43.4163 11.7654C42.2295 11.7654 41.6145 12.7641 41.6145 14.0151C41.6145 15.2661 42.2295 16.2538 43.4163 16.2538ZM47.6325 11.1728V11.9191H47.654C48.0532 11.3813 48.6143 11.0412 49.4235 11.0412C50.5887 11.0412 51.3008 11.6886 51.3008 12.8628V16.8464H50.4269V12.9396C50.4269 12.2044 49.9521 11.7874 49.1645 11.7874C48.2798 11.7874 47.6325 12.4239 47.6325 13.3567V16.8464H46.7585V11.1728H47.6325ZM54.6273 17C52.9227 17 51.93 15.6612 51.93 14.0151C51.93 12.369 52.9874 11.0302 54.5734 11.0302C56.2457 11.0302 57.1412 12.3471 57.1412 14.2236H52.8256C52.8903 15.3759 53.5053 16.2538 54.6273 16.2538C55.4365 16.2538 55.976 15.8587 56.1702 15.0905H57.0226C56.7636 16.3086 55.8897 17 54.6273 17ZM54.5734 11.7325C53.5376 11.7325 52.9766 12.5226 52.8471 13.5542H56.2026C56.1486 12.4239 55.5768 11.7325 54.5734 11.7325ZM57.78 16.8464V11.1728H58.6538V11.9849H58.6754C59.0206 11.4362 59.614 11.0412 60.3153 11.0412C60.995 11.0412 61.5345 11.3923 61.7719 12.0508H61.7934C62.1495 11.4033 62.8184 11.0412 63.4981 11.0412C64.4907 11.0412 65.192 11.6886 65.192 12.8628V16.8464H64.3181V12.9067C64.3181 12.2044 63.8542 11.7874 63.2931 11.7874C62.5703 11.7874 61.9229 12.4239 61.9229 13.3128V16.8464H61.049V12.9067C61.049 12.2044 60.6606 11.7874 60.0887 11.7874C59.409 11.7874 58.6538 12.4239 58.6538 13.3128V16.8464H57.78ZM68.5146 17C66.853 17 65.8173 15.6612 65.8173 14.0151C65.8173 12.369 66.853 11.0302 68.5146 11.0302C70.1869 11.0302 71.2011 12.369 71.2011 14.0151C71.2011 15.6612 70.1869 17 68.5146 17ZM68.5146 16.2538C69.7014 16.2538 70.3056 15.2661 70.3056 14.0151C70.3056 12.7641 69.7014 11.7654 68.5146 11.7654C67.3278 11.7654 66.7128 12.7641 66.7128 14.0151C66.7128 15.2661 67.3278 16.2538 68.5146 16.2538ZM73.9035 12.1385V9H74.7666L75.4356 11.3923H75.4464L76.1261 9H77V12.1385H76.439V9.73525H76.4174C76.4174 9.73525 76.2879 10.2291 76.1692 10.6241L75.7269 12.1385H75.155L74.7127 10.6241C74.6048 10.262 74.4753 9.73525 74.4753 9.73525H74.4537V12.1385H73.9035ZM70.8502 9.51578V9H73.3964V9.51578H72.4254V12.1385H71.8212V9.51578H70.8502Z" fill="white"/>
<path d="M31 16.8464L33.8376 9H34.9273L37.7756 16.8464H36.7183L35.8983 14.454H32.8234L31.9926 16.8464H31ZM34.021 11.0192L33.1039 13.6529H35.6286L34.7439 11.0192C34.5928 10.5802 34.3986 9.91084 34.3986 9.91084H34.377C34.377 9.91084 34.172 10.5693 34.021 11.0192ZM37.6359 11.8971V11.1728H38.4451V9.38409H39.319V11.1728H40.3979V11.8971H39.319V15.5844C39.319 15.9794 39.524 16.1111 39.88 16.1111C40.0527 16.1111 40.2469 16.0672 40.344 16.0343H40.3763V16.8025C40.1713 16.8464 39.934 16.8793 39.675 16.8793C38.9629 16.8793 38.4451 16.583 38.4451 15.7819V11.8971H37.6359ZM43.4163 17C41.7547 17 40.719 15.6612 40.719 14.0151C40.719 12.369 41.7547 11.0302 43.4163 11.0302C45.0886 11.0302 46.1028 12.369 46.1028 14.0151C46.1028 15.6612 45.0886 17 43.4163 17ZM43.4163 16.2538C44.6031 16.2538 45.2073 15.2661 45.2073 14.0151C45.2073 12.7641 44.6031 11.7654 43.4163 11.7654C42.2295 11.7654 41.6145 12.7641 41.6145 14.0151C41.6145 15.2661 42.2295 16.2538 43.4163 16.2538ZM47.6325 11.1728V11.9191H47.654C48.0532 11.3813 48.6143 11.0412 49.4235 11.0412C50.5887 11.0412 51.3008 11.6886 51.3008 12.8628V16.8464H50.4269V12.9396C50.4269 12.2044 49.9521 11.7874 49.1645 11.7874C48.2798 11.7874 47.6325 12.4239 47.6325 13.3567V16.8464H46.7585V11.1728H47.6325ZM54.6273 17C52.9227 17 51.93 15.6612 51.93 14.0151C51.93 12.369 52.9874 11.0302 54.5734 11.0302C56.2457 11.0302 57.1412 12.3471 57.1412 14.2236H52.8256C52.8903 15.3759 53.5053 16.2538 54.6273 16.2538C55.4365 16.2538 55.976 15.8587 56.1702 15.0905H57.0226C56.7636 16.3086 55.8897 17 54.6273 17ZM54.5734 11.7325C53.5376 11.7325 52.9766 12.5226 52.8471 13.5542H56.2026C56.1486 12.4239 55.5768 11.7325 54.5734 11.7325ZM57.78 16.8464V11.1728H58.6538V11.9849H58.6754C59.0206 11.4362 59.614 11.0412 60.3153 11.0412C60.995 11.0412 61.5345 11.3923 61.7719 12.0508H61.7934C62.1495 11.4033 62.8184 11.0412 63.4981 11.0412C64.4907 11.0412 65.192 11.6886 65.192 12.8628V16.8464H64.3181V12.9067C64.3181 12.2044 63.8542 11.7874 63.2931 11.7874C62.5703 11.7874 61.9229 12.4239 61.9229 13.3128V16.8464H61.049V12.9067C61.049 12.2044 60.6606 11.7874 60.0887 11.7874C59.409 11.7874 58.6538 12.4239 58.6538 13.3128V16.8464H57.78ZM68.5146 17C66.853 17 65.8173 15.6612 65.8173 14.0151C65.8173 12.369 66.853 11.0302 68.5146 11.0302C70.1869 11.0302 71.2011 12.369 71.2011 14.0151C71.2011 15.6612 70.1869 17 68.5146 17ZM68.5146 16.2538C69.7014 16.2538 70.3056 15.2661 70.3056 14.0151C70.3056 12.7641 69.7014 11.7654 68.5146 11.7654C67.3278 11.7654 66.7128 12.7641 66.7128 14.0151C66.7128 15.2661 67.3278 16.2538 68.5146 16.2538ZM73.9035 12.1385V9H74.7666L75.4356 11.3923H75.4464L76.1261 9H77V12.1385H76.439V9.73525H76.4174C76.4174 9.73525 76.2879 10.2291 76.1692 10.6241L75.7269 12.1385H75.155L74.7127 10.6241C74.6048 10.262 74.4753 9.73525 74.4753 9.73525H74.4537V12.1385H73.9035ZM70.8502 9.51578V9H73.3964V9.51578H72.4254V12.1385H71.8212V9.51578H70.8502Z" stroke="white" stroke-width="0.4" stroke-linejoin="round" mask="url(#path-3-outside-1_60_406)"/>
<defs>
<clipPath id="clip0_60_406">
<rect width="26" height="26" fill="white"/>
</clipPath>
</defs>
</svg>
