<svg width="24" height="24" viewBox="0 0 24 24" fill="none" xmlns="http://www.w3.org/2000/svg">
<path d="M15.1104 2.98608C15.3344 2.96482 15.4112 3.21715 15.3956 3.39787L15.3943 3.41306C15.3886 3.48216 15.3635 3.53909 15.3183 3.59173C14.7872 4.20944 14.354 4.78139 13.951 5.49277C15.0781 5.22804 16.5091 5.34701 17.6 5.71235C18.6488 6.0578 19.6119 6.62271 20.4253 7.36945C20.6417 7.56553 20.9241 7.83785 21.0553 8.10112C21.0104 8.29359 20.9758 8.55813 20.7189 8.52919C19.2473 8.36344 17.5497 7.9973 16.0747 8.3059C16.4905 8.45248 16.7571 8.57524 17.1202 8.8414C18.4719 9.83234 19.2964 11.4428 19.5577 13.0765C19.5859 13.3264 19.6589 13.6477 19.5023 13.8686C19.3867 14.0317 19.1485 13.9611 19.0185 13.8573C18.7921 13.6752 18.6174 13.429 18.4139 13.2219C17.3603 12.1494 15.9963 11.3231 14.454 11.3082C14.0743 11.3045 13.732 11.3431 13.3564 11.3884C13.6687 12.18 13.952 12.8747 14.2248 13.685C14.8015 15.4201 15.2256 17.2024 15.4921 19.0113C15.6146 19.8242 15.6575 20.58 15.761 21.3759C14.5875 21.3951 13.3527 21.383 12.1768 21.375C12.4448 19.5156 12.4536 18.1159 12.2509 16.2604C12.246 16.144 12.1971 15.8155 12.1781 15.6935C11.9902 14.4828 11.6656 13.27 11.2176 12.1311C9.2294 12.6726 8.18364 14.6063 7.71822 16.4741C7.65154 16.7416 7.58697 17.0042 7.4711 17.2553C7.35799 17.2704 7.01413 17.3299 6.95193 17.2151C6.02078 15.4954 6.07115 12.2865 7.51689 10.8874C6.13307 11.4105 4.99204 12.3075 3.94033 13.3215C3.82291 13.4347 3.6611 13.5871 3.5166 13.6544C3.07242 13.8325 2.99053 13.4833 3.03574 13.139C3.3198 10.9752 4.67221 8.90756 6.55614 7.80199C6.8621 7.62246 7.2051 7.48019 7.55106 7.33479C7.13627 7.18005 6.68031 7.03502 6.24039 6.9292C5.79039 6.82092 5.20563 6.79882 4.76903 6.64828C4.69656 6.6233 4.61847 6.52155 4.59562 6.44433C4.56979 6.35784 4.57999 6.26458 4.62393 6.18574C4.7377 5.97715 5.29274 5.79968 5.51713 5.72571C6.86929 5.27998 8.42826 5.2098 9.80957 5.56275C10.0592 5.62655 10.4071 5.72878 10.6308 5.84545C10.7497 5.69796 10.8845 5.52816 10.9982 5.37595C11.881 4.1943 13.6238 3.15459 15.1104 2.98608Z" fill="#FEFEFE"/>
</svg>
